<svg class="icon" viewBox="0 0 1024 1024" xmlns="http://www.w3.org/2000/svg" width="52" height="52"><defs><style/></defs><path d="M510.7 73.2c-243 0-440 197-440 440s197 440 440 440 440-197 440-440-197-440-440-440zm246.9 302c-48.5 48.6-81.2 76.9-172.3 186.8-52.6 63.4-102.3 131.5-102.7 132l-21.8 27.2c-4.6 6.1-13.5 6.8-19.1 1.6L266.6 560.1c-17.8-16.5-18.8-44.4-2.3-62.2 16.5-17.8 44.4-18.8 62.2-2.3l104.9 97.5c5.5 5.1 14.1 4.5 18.9-1.3 16.2-20.1 38.4-44.5 62.4-68.6 90.2-90.9 145.6-139.7 175.2-161.3 36-26.2 77.3-48.6 87.3-36.2 15.5 19.4 6 25.8-17.6 49.5z"/></svg>