<svg class="icon" viewBox="0 0 1024 1024" xmlns="http://www.w3.org/2000/svg" width="52" height="52"><defs><style/></defs><path d="M790 192H460c-93.4 0-146.4 69.4-204 127S111.8 468.4 111.8 468.4C102 479.6 96 494 96 510.2c0 16 6 30.6 15.8 42 0 0 68.6 75.2 144.2 151 75.6 75.6 113.4 129 204 129h330c77 0 138-65 138-142V330c0-77-61-138-138-138zm-35.4 425.4c12.4 12.4 12.4 32.8 0 45.2-12.4 12.4-32.8 12.4-45.2 0L604 557.2 498.6 662.6c-12.4 12.4-32.6 12.8-45.2 0-12.8-12.8-13.4-31.8 0-45.2L558.8 512 453.4 406.6c-12-12-14.2-31.2 0-45.2 14.2-14.2 32.8-12.4 45.2 0L604 466.8l105.4-105.4c12.4-12.4 32.8-12.4 45.2 0 12.4 12.4 12.4 32.8 0 45.2L649.2 512l105.4 105.4z"/></svg>